<svg xmlns="http://www.w3.org/2000/svg" width="256" height="256" class="icon" viewBox="0 0 1024 1024">
  <path fill="#C0EAFF" d="M493.037 446.081a84.882 84.882 0 1 0 169.764 0 84.882 84.882 0 1 0-169.764 0ZM350.363 798.25 780.19 373.841l65.016 25.284-18.06 36.12-400.93 415.38z"/>
  <path fill="#1F87DD" d="M420.797 859.654c-5.418 0-9.03-1.806-12.642-5.418L249.228 695.31c-7.224-7.224-7.224-18.06 0-25.284s18.06-7.224 25.283 0L420.797 816.31l399.125-400.93-216.72-216.72-411.766 411.767c-7.224 7.224-18.06 7.224-25.284 0s-7.224-18.06 0-25.284L590.56 158.928c7.224-7.224 18.06-7.224 25.284 0L857.848 400.93c7.224 7.224 7.224 18.06 0 25.284L433.44 854.236c-3.612 3.612-9.03 5.418-12.642 5.418z"/>
  <path fill="#1F87DD" d="M657.383 328.691c-5.418 0-9.03-1.806-12.642-5.418l-21.672-21.672c-7.224-7.224-7.224-18.06 0-25.284s18.06-7.224 25.284 0l21.672 21.672c7.224 7.224 7.224 18.06 0 25.284-3.612 3.612-9.03 5.418-12.642 5.418zM502.067 630.293c-5.418 0-9.03-1.806-12.642-5.418l-95.718-95.718c-7.224-7.224-7.224-18.06 0-25.284s18.06-7.224 25.284 0l95.718 95.718c7.224 7.224 7.224 18.06 0 25.284-1.806 3.612-7.224 5.418-12.642 5.418zm-50.568 50.568c-5.418 0-9.03-1.806-12.642-5.418l-95.718-95.718c-7.224-7.224-7.224-18.06 0-25.284s18.06-7.224 25.284 0l95.718 95.718c7.224 7.224 7.224 18.06 0 25.284-3.612 3.612-7.224 5.418-12.642 5.418zm-50.568 50.568c-5.418 0-9.03-1.806-12.642-5.418l-95.718-95.718c-7.224-7.224-7.224-18.06 0-25.284s18.06-7.224 25.284 0l95.718 95.718c7.224 7.224 7.224 18.06 0 25.284-3.612 3.612-9.03 5.418-12.642 5.418zM568.89 554.44c-28.896 0-54.18-10.836-74.046-30.702s-30.702-46.956-30.702-74.046c0-28.896 10.836-54.18 30.702-74.046 9.03-9.03 19.866-16.254 30.702-21.672 9.03-3.612 19.866-7.224 30.702-9.03 32.508-3.612 65.016 7.224 88.494 30.702 19.866 19.866 30.702 46.956 30.702 74.046 0 28.896-10.836 54.18-30.702 74.046-19.866 19.866-46.956 30.702-75.852 30.702zm0-175.182h-9.03c-7.224 1.806-14.448 3.612-19.866 5.418-7.224 3.612-14.448 9.03-19.866 14.448-12.642 12.642-19.866 30.702-19.866 48.762s7.224 36.12 19.866 48.762c27.09 27.09 72.24 27.09 97.524 0 12.642-12.642 19.866-30.702 19.866-48.762s-7.224-36.12-19.866-48.762c-12.642-12.642-28.896-19.866-48.762-19.866z"/>
</svg>
